<svg xmlns="http://www.w3.org/2000/svg"><defs><font id="JosefinSans" horiz-adv-x="547"><font-face font-family="Josefin Sans Thin" ascent="750" descent="-250" alphabetic="0"/><glyph horiz-adv-x="325"/><glyph unicode="!" horiz-adv-x="202" d="M36 765h125V199H36v566Zm66-779Q66-14 43 5T20 57q0 31 23 52t59 21q35 0 57-21t23-52q0-32-22-51t-58-20Z"/><glyph unicode="&quot;" horiz-adv-x="366" d="m186 734-2-126q-1-63-2-127H64v253h122Zm136 0-2-126q-1-63-2-127H200v253h122Z"/><glyph unicode="#" horiz-adv-x="582" d="M287 656q-6-45-11-88t-12-89h62q5 45 11 88t11 89h127q-6-45-11-88t-12-89h84q-3-30-5-60t-7-61h-85l-4-32q-2-16-4-34h85q-4-31-8-61t-7-61h-85q-4-43-9-85T396 0H270q5 43 10 85t10 85h-61q-4-43-10-85T209 0H82q5 43 10 85t10 85H23q4 31 8 61t7 61h79q2 17 4 33t4 33H46q4 30 6 60t7 61h79q6 45 11 88t12 89h126Zm-36-298q-1-16-3-32t-5-34h62q2 17 4 33t3 33h-61Z"/><glyph unicode="$" horiz-adv-x="567" d="M232-68v434l40 47v391h84V385l-40-61V-68h-84Zm256 626q-42 23-85 38t-82 15q-47 0-74-19t-27-57q0-26 20-46t53-37 68-29q32-12 63-28t57-41 40-61 15-90q0-56-29-104t-85-77T284-8q-42 0-85 8t-86 26-81 45l64 113q26-19 56-33t62-23 57-8q26 0 52 7t44 26 18 50q0 22-14 40t-39 33-54 26q-34 13-70 30t-67 41-51 61-20 90q0 64 28 111t81 74 120 31q89 0 144-21t100-50l-55-111Z"/><glyph unicode="%" horiz-adv-x="810" d="M196 294q-55 0-91 25t-53 68-17 97q0 54 17 96t53 68 91 25q55 0 90-25t53-67 18-97q0-54-17-97t-53-68-91-25Zm-39 190q0-41 8-66t31-26q23 0 30 25t8 67q0 47-7 68t-31 22q-23 0-31-21t-8-69ZM614-28q-55 0-91 25t-53 68-17 97q0 54 17 96t53 68 91 25q55 0 90-25t53-67 18-97q0-54-17-97T705-3t-91-25Zm-39 190q0-41 8-66t31-26q23 0 30 25t8 67q0 47-7 68t-31 22q-23 0-31-21t-8-69Zm153 511L242-2 105 0l484 673h139Z"/><glyph unicode="&amp;" horiz-adv-x="740" d="M715 0H547L223 436q-10 14-25 38t-26 55-11 62q0 40 20 79t63 66 108 27q71 0 125-29t86-70l-73-97q-31 34-59 54t-56 20q-34 0-49-20t-15-44q0-14 7-30t16-30 11-19L715 0ZM310 335q-24 0-45-9t-37-26-24-36-9-42q0-31 15-54t43-37 59-13q33 0 54 9t36 26 24 35l93-77q-27-51-82-87T292-12q-69 0-125 29T78 97 45 214q0 50 22 92t61 73 85 49 96 20l1-113Zm218 113h132L536 136l-105 62 97 250Z"/><glyph unicode="'" horiz-adv-x="175" d="m152 734-2-126q-1-63-2-127H28v253h124Z"/><glyph unicode="(" horiz-adv-x="408" d="M75 296q0 102 24 191t63 158 81 115l115-53q-39-45-70-105t-49-137-18-169q0-92 18-168T288-9t70-105l-115-54q-42 46-80 115t-63 158-25 191Z"/><glyph unicode=")" horiz-adv-x="408" d="M333 296q0-102-24-191T246-53t-81-115L50-115q39 45 70 105t49 137 18 169q0 92-18 168t-49 137-70 105l115 54q43-45 81-115t62-158 25-191Z"/><glyph unicode="*" horiz-adv-x="335" d="M128 504q-15-9-30-17t-31-18l-20 36q-10 18-22 37 16 8 31 17t31 17l-30 18q-15 9-31 19 10 17 19 34t20 35q16-9 31-18t32-19v75h84v-37q0-18-1-38l32 18 32 18 20-34q10-17 20-35l-32-18q-16-9-33-19 16-9 31-18t32-18l-20-36q-10-18-22-37-16 9-31 18t-31 19v-34q0-17-1-35h-80v70Z"/><glyph unicode="+" horiz-adv-x="554" d="M208 419h127V295h120V174H335V52H208v122H88v121h120v124Z"/><glyph unicode="," horiz-adv-x="205" d="M188 88q-22-53-44-105t-44-105H-12Q8-69 27-17T67 88h121Z"/><glyph unicode="-" horiz-adv-x="306" d="M54 290h188V168H54v122Z"/><glyph unicode="." horiz-adv-x="172" d="M15 72q0 31 22 52t50 21q25 0 47-21t23-52q0-33-22-52T87 0Q60 0 38 19T15 72Z"/><glyph unicode="/" horiz-adv-x="421" d="M427 751q-71-193-142-385T143-19H17q71 193 142 385t142 385h126Z"/><glyph unicode="0" horiz-adv-x="628" d="M314-1q-57 0-107 20t-89 61-61 105-22 150q0 96 21 160t58 104 89 55 111 17q57 0 107-20t89-61 61-105 22-150q0-89-22-153T510 78t-89-60T314-1Zm-1 139q50 0 78 26t39 73 12 102q0 55-11 98t-40 68-78 26q-49 0-77-26t-39-70-11-99q0-55 11-100t39-71 77-27Z"/><glyph unicode="1" horiz-adv-x="344" d="M50 663h199V0H103v523H50v140Z"/><glyph unicode="2" horiz-adv-x="583" d="M54 0q62 63 119 121t102 113 72 106 27 99q0 21-7 38t-21 29-32 18-42 7q-23 0-41-6t-30-18-18-24-7-27q0-32 10-56t29-44l-89-81q-29 14-49 47t-31 69-11 61q0 55 30 105t89 82 143 32q69 0 120-31t79-81 29-108q0-45-14-87t-38-82-56-80-64-81l-66 19h246V0H54Z"/><glyph unicode="3" horiz-adv-x="527" d="M456 663 306 375l-79 43q10 4 21 6t22 2q35 1 70-8t63-32 46-63 18-102q0-72-33-123t-88-79T229-8q-49 0-103 20T40 67l74 120q15-19 46-37t65-18q22 0 43 11t35 33 14 54q0 44-24 70t-69 26q-30 0-45-2t-31-7l-3 4 117 219 42-17H95v140h361Z"/><glyph unicode="4" horiz-adv-x="553" d="M10 145v1l423 525h1V255h79V145h-79V0H288v145H10Zm285 207-77-103-14 6h84v104l7-7Z"/><glyph unicode="5" horiz-adv-x="518" d="M242-8q-59 0-115 22T40 67l75 116q18-22 51-36t65-15q23 0 43 10t32 30 12 49q0 32-12 56t-36 37-56 14q-31 0-59-8t-66-29h-1v372h331V523H213V416l-17 30q14 2 27 3t26 1q70 0 118-31t75-82 26-111q0-66-30-119t-81-84T242-8Z"/><glyph unicode="6" horiz-adv-x="561" d="M286-8q-72 0-130 34T64 126 30 287q0 59 22 114t62 106 92 95 111 79l97-105q-80-31-131-79t-75-101-24-96l-36 4q27 63 69 98t119 35q48 0 93-27t73-75 29-112q0-74-35-125t-92-79T286-8Zm-6 130q29 0 51 11t36 34 13 55q0 31-13 51t-36 31-51 11q-28 0-50-10t-36-28-14-38v-24q0-24 13-45t36-34 51-14Z"/><glyph unicode="7" horiz-adv-x="503" d="M488 663 241 0H79l205 540 47-17H40v140h448Z"/><glyph unicode="8" horiz-adv-x="532" d="M15 215q0 52 19 88t46 59 51 38q-22 23-37 47t-16 70q0 45 25 80t69 54 95 20q52 0 95-19t70-53 27-75q0-50-16-75t-41-49q24-15 50-39t46-59 19-87q0-58-33-109t-89-82T265-8q-73 0-129 31t-89 83-32 109Zm149 6q0-29 14-53t37-39 51-15q29 0 53 14t38 39 15 54q0 29-13 52t-36 39-51 16q-28 1-52-13t-40-38-16-56Zm55 278q0-20 16-35t35-15q18 0 34 15t16 35q0 20-15 35t-35 16q-19 0-35-15t-16-36Z"/><glyph unicode="9" horiz-adv-x="546" d="M225 207q-48 0-92 27t-74 75-29 112q0 80 35 136t92 85 118 29q73 0 130-32t92-89 34-128q0-82-28-147t-76-118-106-94-117-80L107 88q80 33 141 75t95 89 34 92l36-4q-27-63-69-98t-119-35Zm56 122q42 0 71 27t29 61v23q0 26-13 49t-35 37-52 15q-28 0-51-12t-36-37-13-59q0-34 13-57t36-35 51-12Z"/><glyph unicode=":" horiz-adv-x="179" d="M15 357q0 31 22 52t50 21q25 0 47-21t23-52q0-33-22-52t-48-20q-27 0-49 19t-23 53Zm0-285q0 31 22 52t50 21q25 0 47-21t23-52q0-33-22-52T87 0Q60 0 38 19T15 72Z"/><glyph unicode=";" horiz-adv-x="205" d="M52 327q0 31 22 52t49 21q26 0 48-21t22-52q0-33-22-52t-48-20q-26 0-48 19t-23 53ZM174 88q-22-53-44-105T86-122H-26Q-6-69 13-17T53 88h121Z"/><glyph unicode="&lt;" horiz-adv-x="555" d="M475 347 298 242l177-105V-14L30 242l445 257V347Z"/><glyph unicode="=" horiz-adv-x="722" d="M102 412h516V290H102v122Zm0-198h516V92H102v122Z"/><glyph unicode="&gt;" horiz-adv-x="555" d="m80 138 177 105L80 348v151l445-256L80-14v152Z"/><glyph unicode="?" horiz-adv-x="464" d="M142 197v53q0 50 12 83t32 58 40 43q27 25 48 49t21 65q0 22-11 37t-26 23-31 9q-29 0-48-13t-32-35-22-44L10 579q6 18 21 46t42 56 69 47 100 19q57 0 102-19t73-60 27-107q0-55-15-89t-37-57-44-47q-17-17-32-37t-25-48-9-65v-21H142Zm70-211q-36 0-59 19t-23 52q0 31 23 52t59 21q35 0 57-21t23-52q0-32-22-51t-58-20Z"/><glyph unicode="@" horiz-adv-x="1061" d="M460-226q-82 0-158 24t-135 73T73-3 38 178q0 67 20 137t63 136 111 116 163 82 220 31q100 0 176-28t127-79 78-117 27-144q0-65-19-122T949 88t-85-70T753-8q-43 0-76 21t-50 57-10 82l24-62q-15-21-45-44T528 5t-80-17q-55 0-99 23t-70 69-26 111q0 76 32 136t89 96 133 36q44 0 70-10t43-25 29-34l16 47h134l-37-265q-2-17 0-29t9-17 18-6q18 0 36 13t34 39 25 61 10 79q0 70-32 128t-98 95-169 36q-107 0-182-29t-124-75-76-100-38-102-11-83q0-81 25-138t70-92 101-53 121-17q57 0 113 17t105 49l56-79q-40-33-91-54t-105-31-99-10Zm44 328q27 0 47 7t36 22 30 37l15 107q-5 22-19 37t-34 24-48 9q-37 0-66-19t-46-50-17-66q0-30 13-54t36-39 53-15Z"/><glyph unicode="A" horiz-adv-x="696" d="m12 0 332 765h8L684 0H516L304 538l105 72L155 0H12Zm227 266h221l51-122H194l45 122Z"/><glyph unicode="B" horiz-adv-x="647" d="M311 736q115 0 183-46t68-139q0-68-33-113t-91-68-132-23l-23 78q91 0 161-25t112-71 41-112q0-60-21-101t-58-67-83-37-95-12H95v736h216Zm17-301q43 0 63 26t21 59q0 38-25 57t-69 19h-78V435h88Zm5-300q32 0 58 8t41 27 15 47q0 32-18 48t-46 23-60 7h-83V135h93Z"/><glyph unicode="C" horiz-adv-x="697" d="M647 61q-12-10-44-27T523 4 419-8q-87 2-155 31t-116 81-73 117-25 141q0 84 25 154t73 121 114 79 146 28q74 0 131-20t93-43l-57-137q-25 19-66 39t-96 21q-42 0-80-17t-68-50-47-74-17-93q0-53 15-97t45-75 69-49 92-17q59 0 101 19t64 40l60-130Z"/><glyph unicode="D" horiz-adv-x="771" d="M95 0v736h220q111 0 189-33t125-88 70-123 22-137q0-82-29-147T611 96 493 25 351 0H95Zm145 140h86q55 0 100 14t77 43 50 70 18 98q0 72-23 117t-58 71-71 34-61 10H240V140Z"/><glyph unicode="E" horiz-adv-x="666" d="M95 736h502V596H240V439h316V299H240V140h371V0H95v736Z"/><glyph unicode="F" horiz-adv-x="600" d="M95 736h460V596H240V429h273V289H240V0H95v736Z"/><glyph unicode="G" horiz-adv-x="762" d="M692 74q-13-14-41-28t-64-27-75-19-72-8q-90 0-162 26T155 92 77 205 50 347q0 101 30 175t83 124 121 74 144 24q71 0 130-15t100-39l-47-135q-18 10-48 20t-61 16-55 7q-60 0-106-15t-77-45-48-74-16-104q0-52 18-93t50-71 77-44 99-15q31 0 57 4t44 15v89H418v140h274V74Z"/><glyph unicode="H" horiz-adv-x="809" d="M714 736V0H569v299H240V0H95v736h145V439h329v297h145Z"/><glyph unicode="I" horiz-adv-x="335" d="M95 736h145V0H95v736Z"/><glyph unicode="J" horiz-adv-x="400" d="M305 155q0-96-38-164T162-113 5-153v141q68 4 111 42t43 128v578h146V155Z"/><glyph unicode="K" horiz-adv-x="704" d="m242 474-4-37 22 28 240 271h188L384 406 689 0H505L278 314l-36-36V0H95v736h147V474Z"/><glyph unicode="L" horiz-adv-x="641" d="M95 736h145V140h346V0H95v736Z"/><glyph unicode="M" horiz-adv-x="948" d="M95 0v766h1l409-580-62 14 408 566h2V0H708v439l9-75L468 10h-2L210 364l25 69V0H95Z"/><glyph unicode="N" horiz-adv-x="853" d="M754-30 196 474l43-24 3-450H95v765h6l546-502-32 14-3 459h146V-30h-4Z"/><glyph unicode="O" horiz-adv-x="852" d="M50 367q0 76 29 144t80 120 120 83 146 30q77 0 145-30t120-82 82-121 30-144q0-78-29-146t-82-119-121-81T425-8q-78 0-146 29t-119 80-81 120-29 146Zm150 0q0-49 17-91t49-75 73-51 91-18q47 0 87 18t71 50 47 75 17 92q0 50-17 93t-48 75-72 51-89 18q-48 0-89-18t-72-50-48-76-17-93Z"/><glyph unicode="P" horiz-adv-x="636" d="M318 736q91 0 154-30t96-86 33-132q0-45-13-90t-43-83-79-59-122-23H240V0H95v736h223Zm25-362q33 0 55 11t34 29 18 37 6 33q0 11-3 29t-15 38-33 32-61 13H240V374h103Z"/><glyph unicode="Q" horiz-adv-x="893" d="M615 142h228V0H425l190 142ZM50 367q0 76 29 144t80 120 120 83 146 30q77 0 145-30t120-82 82-121 30-144q0-78-29-146t-82-119-121-81T425-8q-78 0-146 29t-119 80-81 120-29 146Zm150 0q0-48 17-90t49-75 73-51 91-18q47 0 87 18t71 50 47 74 17 92q0 48-17 90t-48 75-72 50-89 18q-48 0-89-18t-72-50-48-74-17-91Z"/><glyph unicode="R" horiz-adv-x="686" d="M318 736q69 0 123-17t90-50 56-78 19-103q0-45-13-90t-44-82-81-59-124-23H240V0H95v736h223Zm25-362q33 0 55 11t34 28 18 35 6 35q0 12-3 30t-15 38-33 32-61 13H240V374h103Zm136-90L661 0H492L306 280l173 4Z"/><glyph unicode="S" horiz-adv-x="583" d="M488 558q-42 23-85 38t-82 15q-47 0-74-19t-27-57q0-26 20-46t53-37 68-29q32-12 63-28t57-41 40-61 15-90q0-56-29-104t-85-77T284-8q-42 0-85 8t-86 26-81 45l64 113q26-19 56-33t62-23 57-8q26 0 52 7t44 26 18 50q0 22-14 40t-39 33-54 26q-34 13-70 30t-67 41-51 61-20 90q0 64 28 111t81 74 120 31q89 0 144-21t100-50l-55-111Z"/><glyph unicode="T" horiz-adv-x="586" d="M45 736h496V596H362V0H217v596H45v140Z"/><glyph unicode="U" horiz-adv-x="756" d="M225 272q0-35 21-67t55-52 76-20q45 0 80 20t55 52 21 67v464h143V269q0-81-40-143T528 28 377-8q-82 0-149 35t-108 98-40 144v467h145V272Z"/><glyph unicode="V" horiz-adv-x="736" d="m206 736 215-530-84 17 195 513h172L368-34 32 736h174Z"/><glyph unicode="W" horiz-adv-x="1023" d="M32 731h170l157-462-23 10 137 341 67-199L328-34 32 731Zm369 0h144l181-447-26 4 135 443h156L707-32 401 731Z"/><glyph unicode="X" horiz-adv-x="725" d="M35 736h185L700 0H513L35 736ZM25 0l262 412 68-146L205 0H25Zm340 466 152 270h176L440 341l-75 125Z"/><glyph unicode="Y" horiz-adv-x="722" d="M286 229 15 736h179l190-382-43-3 187 385h179L431 229V0H286v229Z"/><glyph unicode="Z" horiz-adv-x="722" d="m45 0 17 27q17 27 45 72t64 102 73 117 73 117 64 102 46 72 17 27l16-40H195q-21 0-43 9t-38 26-16 37v105h133v-14q0-22 7-22t25-1h409L284 124l-8 16h395V0H45Z"/><glyph unicode="[" horiz-adv-x="374" d="M95 761h234V631h-89V-23h89v-129H95v913Z"/><glyph unicode="\" horiz-adv-x="430" d="M132 751q71-193 142-385T416-19H274q-71 193-142 385T-10 751h142Z"/><glyph unicode="]" horiz-adv-x="374" d="M279-152H45v130h89v654H45v129h234v-913Z"/><glyph unicode="^" horiz-adv-x="479" d="m274 489-9 11q-9 11-19 22t-10 12l-9-11q-9-11-18-23t-10-11h-85q31 46 61 92t61 92q31-46 61-92t62-92h-85Z"/><glyph unicode="_" horiz-adv-x="612" d="M102 121h408V0H102v121Z"/><glyph unicode="`" horiz-adv-x="317" d="M30 624h155l62-135h-85L30 624Z"/><glyph unicode="a" horiz-adv-x="614" d="M256-12q-61 0-110 24T67 88 38 218q0 74 30 128t79 83 104 30q65 0 98-21t56-48l-6-17 13 64h130V0H402v95l11-30q-2 0-12-11t-29-27-48-27-68-12Zm40 114q25 0 45 7t35 22 26 37v107q-8 22-24 37t-38 24-49 9q-30 0-55-15t-41-43-15-62q0-35 16-63t42-44 58-16Z"/><glyph unicode="b" horiz-adv-x="624" d="M359-12q-55 0-92 18t-66 49l11 30V0H72v789h139V362v45q26 22 69 37t98 15q57 0 104-27t75-78 29-126q0-74-31-128t-84-83-112-29Zm-31 118q31 0 57 16t43 44 16 63q0 35-16 62t-42 42-58 16q-27 0-50-8t-40-24-26-38V172q12-22 28-36t39-22 49-8Z"/><glyph unicode="c" horiz-adv-x="479" d="M443 39q-29-23-72-37t-86-14q-75 0-130 27T69 94 38 219q0 73 33 124t86 79 113 27q59 0 102-16t75-42l-68-90q-14 11-38 22t-58 12q-29 0-53-15t-38-41-14-60q0-32 15-59t41-42 63-16q23 0 42 6t34 19l70-88Z"/><glyph unicode="d" horiz-adv-x="624" d="M250-12q-61 0-109 28T66 99 38 227q0 74 30 126t82 79 118 27q42 0 80-13t65-40v-44 427h139V0H412v85l11-30q-34-28-76-47t-97-20Zm46 118q28 0 49 7t38 22 29 37v107q-8 22-24 37t-40 24-52 9q-31 0-57-15t-43-43-16-62q0-35 16-63t42-44 58-16Z"/><glyph unicode="e" horiz-adv-x="553" d="M287-12q-80 0-135 30t-85 83-29 122q0 66 34 119t91 84 127 32q94 0 154-54t79-158L183 138l-31 76 246 83-29-13q-8 26-28 45t-62 20q-31 0-54-14t-36-41-13-63q0-41 15-68t41-42 58-14q23 0 44 8t43 21l62-104q-35-20-75-32t-77-12Z"/><glyph unicode="f" horiz-adv-x="435" d="M114 0v315H40v124h74v152q0 86 49 140t144 55q28 0 62-8t61-28l-59-101q-10 13-23 17t-26 5q-30 0-49-20t-19-64V439h132V315H254V0H114Z"/><glyph unicode="g" horiz-adv-x="633" d="M298-220q-59 0-99 14t-69 34-50 38l82 96q23-21 53-40t81-20q33 0 61 11t46 34 18 55v96l5-25q-16-34-58-59T258-12q-59 0-109 30t-81 83-30 120q0 69 32 122t83 85 108 31q57 0 98-16t63-41l-5-13 15 48h129V0q0-64-36-113t-95-78-132-29ZM179 225q0-35 16-63t43-44 62-16q29 0 51 7t40 22 30 37v107q-9 22-27 37t-41 24-53 9q-34 0-61-15t-44-43-16-62Z"/><glyph unicode="h" horiz-adv-x="594" d="M72 0v789h137V349l-1 17q23 41 65 66t103 26q62 0 103-36t43-95V0H382v275q-1 29-15 46t-49 18q-32 0-56-21t-37-57-13-83V0H72Z"/><glyph unicode="i" horiz-adv-x="284" d="M72 437h140V0H72v437Zm-3 411q0 31 24 51t53 20q28 0 51-20t24-51q0-31-23-50t-52-20q-28 0-52 19t-25 51Z"/><glyph unicode="j" horiz-adv-x="295" d="m101-211-81 87q30 22 46 54T83 8v429h140V0q0-78-28-129t-94-82ZM78 848q0 31 24 51t53 20q28 0 51-20t24-51q0-31-23-50t-52-20q-28 0-52 19t-25 51Z"/><glyph unicode="k" horiz-adv-x="546" d="M72 0v789h140V0H72Zm251 297L521 0H358L231 217l92 80ZM170 121l-14 133 264 194 85-75-335-252Z"/><glyph unicode="l" horiz-adv-x="284" d="M72 789h140V0H72v789Z"/><glyph unicode="m" horiz-adv-x="863" d="m199 437 11-77-2 6q26 44 65 68t94 25q36 0 63-10t47-29 26-51l-5-1q28 41 67 66t83 25q65 0 103-36t40-95V0H652v270q-1 29-9 47t-37 21q-34 0-57-23t-35-60-12-76V0H362v270q-1 29-10 47t-39 21q-33 0-55-23t-34-60-12-74V0H72v437h127Z"/><glyph unicode="n" horiz-adv-x="594" d="m199 437 11-78-2 7q23 41 65 66t103 26q62 0 103-36t43-95V0H382v275q-1 29-15 46t-49 18q-32 0-56-21t-37-57-13-83V0H72v437h127Z"/><glyph unicode="o" horiz-adv-x="571" d="M38 224q0 67 31 120t89 83 131 31q75 0 130-30t84-84 30-120q0-67-29-120t-85-85-132-31q-72 0-128 28T70 97 38 224Zm141-1q0-34 14-61t38-44 54-16q33 0 57 16t37 43 13 62q0 35-13 62t-37 43-57 16q-30 0-54-16t-38-43-14-62Z"/><glyph unicode="p" horiz-adv-x="624" d="M346-12q-39 0-76 14t-63 42l4 41v-295H72v657h120l20-85-11 30q34 29 76 48t97 19q61 0 109-28t75-82 28-129q0-74-31-126t-85-79-124-27ZM318 98q34 0 62 15t46 42 18 63q0 37-15 64t-42 43-59 16q-28 0-49-7t-38-22-29-37V168q8-21 23-37t36-24 47-9Z"/><glyph unicode="q" horiz-adv-x="624" d="M246-12q-56 0-103 27T67 93 38 219q0 75 32 128t83 83 112 29q56 0 93-18t65-49l-11-30v85h140v-657H413V85l2-45q-26-22-69-37T246-12Zm50 110q28 0 51 8t40 25 25 37v107q-12 22-28 36t-38 22-50 8q-31 0-57-16t-43-44-16-63q0-35 16-62t42-42 58-16Z"/><glyph unicode="r" horiz-adv-x="410" d="m198 437 13-120-3 18q19 39 52 66t65 43 50 15l-7-140q-49 6-84-16t-54-58-19-74V0H72v437h126Z"/><glyph unicode="s" horiz-adv-x="447" d="M214-9q-54 0-100 19T35 63l58 77q32-29 59-41t50-13q17 0 30 3t22 11 8 20q0 17-13 27t-35 16-45 14q-60 19-86 55t-27 80q0 33 17 66t56 56 100 23q55 0 93-11t72-36l-53-82q-19 15-42 25t-44 12q-18 1-30-4t-20-13-7-17q-1-19 14-30t40-17 47-14q32-10 55-27t35-40 13-57q0-40-20-75t-62-58T214-9Z"/><glyph unicode="t" horiz-adv-x="394" d="M113 629h140V439h106V330H253V0H113v330H45v109h68v190Z"/><glyph unicode="u" horiz-adv-x="584" d="M213-21q-59 0-99 36t-42 95v327h140V162q2-29 15-46t44-18q31 0 53 21t35 57 13 83v178h140V0H385l-11 80 2-9q-15-27-38-48T284-9t-71-12Z"/><glyph unicode="v" horiz-adv-x="534" d="M272-9 10 437h166l149-302-86 3 129 299h156L276-9h-4Z"/><glyph unicode="w" horiz-adv-x="684" d="m384 437 96-225-26-2 84 227h136L477-26 337 264 209-26 10 437h136l106-243-48 7 84 186-23 50h119Z"/><glyph unicode="x" horiz-adv-x="526" d="m270 298 83 139h139L319 197l-49 101ZM516 0H347L10 437h172L516 0ZM252 140 154 0H15l173 234 64-94Z"/><glyph unicode="y" horiz-adv-x="534" d="m107-210 291 647h126L242-210H107ZM224-2 10 437h157L332 68 224-2Z"/><glyph unicode="z" horiz-adv-x="522" d="M140 323q-36 0-63 26t-27 70v60h105v-14q0-21 7-24t27-4h277L224 85l-26 29h265V0H20l249 363 21-40H140Z"/><glyph unicode="{" horiz-adv-x="401" d="M314 639q-21 0-32-6t-16-27-5-67v-98q0-38-11-65t-27-45-28-26q11-8 26-24t28-40 12-53V68q0-45 4-66t16-27 33-6h37v-122h-79q-28 0-55 1t-51 10-36 35-14 74v165q0 30-9 56t-27 44-45 17v116q27 1 45 17t27 43 9 57v158q0 48 13 73t35 35 51 11 57 2h79V639h-37Z"/><glyph unicode="|" horiz-adv-x="306" d="M88 714h126v-951H88v951Z"/><glyph unicode="}" horiz-adv-x="401" d="M87-31q21 0 32 6t16 27 5 67v98q0 39 11 66t27 44 28 26q-10 9-26 25t-28 39-12 53v120q0 46-4 66t-16 27-33 6H50v122h79q28 0 55-1t51-10 36-35 14-74V476q0-22 5-43t15-37 25-27 36-10V243q-20 0-35-10t-26-26-15-37-5-44V-32q0-48-13-73t-35-35-51-11-57-2H50v122h37Z"/><glyph unicode="~" horiz-adv-x="451" d="M317 422q-42 0-69 17t-51 36q-13 11-26 19t-27 9q-16 0-25-12t-11-30-1-37H22q-5 47 8 89t45 69 78 27q30 0 54-16t46-35q17-14 31-25t29-11q16 0 22 13t8 32 0 39h85q9-52-4-94t-42-66-65-24Z"/><glyph horiz-adv-x="325"/><glyph unicode="¡" horiz-adv-x="204" d="M36-214h125v566H36v-566Zm66 779q-36 0-59-19t-23-51q0-32 23-53t59-21q35 0 57 21t23 53q0 31-22 50t-58 20Z"/><glyph unicode="¢" horiz-adv-x="479" d="M239 506h84V-68h-84v574ZM443 39q-29-23-72-37t-86-14q-75 0-130 27T69 94 38 219q0 73 33 124t86 79 113 27q59 0 102-16t75-42l-68-90q-14 11-38 22t-58 12q-29 0-53-15t-38-41-14-60q0-32 15-59t41-42 63-16q23 0 42 6t34 19l70-88Z"/><glyph unicode="£" horiz-adv-x="672" d="M462 418V278H107v140h355ZM173 560q0 48 30 88t83 65 125 24q74 0 128-29t82-81l-105-72q-7 8-19 17t-32 17-51 8q-32 0-53-9t-32-30-11-54V217q0-19-2-36t-8-30-18-24l-20 13h197q22 0 33 9t11 30v33l126 1v-81q0-30-9-54t-27-41-44-27-62-10H75v140h45q20 0 31 4t17 19 5 50v347Z"/><glyph unicode="¤" horiz-adv-x="506" d="M393 441q22-38 22-80 0-22-6-42t-17-39l24-24-59-59q-7 6-13 12t-13 13q-35-20-79-20-22 0-41 5t-37 14l-25-25-59 59 24 24q-10 18-16 39t-6 43q0 22 5 41t16 37q-6 6-11 12t-12 12l59 59 24-24q19 9 38 15t41 6q22 0 42-5t38-16l24 24 59-59-22-22Zm-217-81q0-21 10-38t28-28 39-11q22 0 39 10t28 28 11 39q0 22-10 39t-28 28-40 11q-21 0-38-10t-28-28-11-40Z"/><glyph unicode="¥" horiz-adv-x="722" d="M174 315h389V202H174v113Zm1-138h388V64H175v113Zm111 132L15 736h179l190-302-43-3 187 305h179L431 309V0H286v309Z"/><glyph unicode="¦" horiz-adv-x="219" d="M51 714h126V357H51v357Zm0-595h126v-357H51v357Z"/><glyph unicode="§" horiz-adv-x="579" d="m384 139-55 53q50 0 91-18t65-54 25-86q0-60-29-109t-80-80-118-30q-37 0-77 6t-80 23-76 47l72 120q32-25 58-39t50-21 45-7q25 0 43 8t29 23 11 37q0 22-15 36t-40 23-54 17q-31 8-64 21t-61 33-45 50-18 69q0 57 27 91t67 49 81 11l-11-52q-58 19-90 47t-44 61-12 68q0 35 11 70t38 65 68 47 104 18q66-1 116-22t90-56l-63-107q-40 34-69 46t-59 13q-31 0-49-7t-27-19-8-27q0-21 16-35t43-24 57-18q30-8 62-20t59-31 44-49 17-74q0-56-35-103t-110-64Zm3 140q2 18-14 33t-38 24-42 11q-39 3-63-12t-27-37q-1-21 12-38t34-29 42-18q23 2 44 10t36 22 16 34Z"/><glyph unicode="¨" horiz-adv-x="442" d="M50 542q0 32 22 52t50 21q25 0 47-20t23-53q0-32-22-52t-48-20q-27 0-49 20t-23 52Zm200 0q0 32 22 52t50 21q25 0 47-20t23-53q0-32-22-52t-48-20q-27 0-49 20t-23 52Z"/><glyph unicode="©" horiz-adv-x="880" d="M612 182q-25-27-69-51t-104-23q-54 2-98 30t-71 74-26 100q0 61 25 108t71 74 110 27q22 0 48-4t50-13 40-25l-56-107q-16 17-34 22t-37 5q-23 0-39-12t-25-30-8-40q0-22 8-40t25-30 41-12q22 0 45 10t40 32l64-95ZM440-71q-80 0-150 29T165 39 81 160 50 312q0 83 30 153t85 122 124 80 151 29q80 0 150-28t125-81 84-122 31-153q0-82-30-151T715 39 591-42 440-71Zm0 112q77 0 137 35t96 96 36 140q0 79-35 140t-96 96-138 36q-76 0-137-35t-97-97-36-140q0-78 35-139t97-97 138-35Z"/><glyph unicode="ª" horiz-adv-x="389" d="M150 427q-35 0-63 16t-45 50-17 86q0 48 17 83t45 54 60 20q37 0 56-12t32-27l-3-14 7 41h100V434H233v54l6-17q-1 0-11-11t-30-22-48-11Zm35 85q12 0 20 4t16 13 12 21v61q-6 19-18 29t-32 11q-22 0-36-19t-15-49q0-20 7-36t19-25 27-10Z"/><glyph unicode="«" horiz-adv-x="609" d="m15 244 18 14q18 14 48 38t61 50 61 49 47 38 19 15V323l-14-12q-14-12-33-27t-33-28-14-12l14-12q14-12 33-28t33-29 14-12V39L15 244Zm250 0 18 14q18 14 48 38t61 50 61 49 47 38 19 15V323l-14-12q-14-12-33-27t-33-28-14-12l14-12q14-12 33-28t33-29 14-12V39L265 244Z"/><glyph unicode="¬" horiz-adv-x="467" d="M50 329h367V91H272v98H50v140Z"/><glyph unicode="­" horiz-adv-x="600" d="M54 290h188V168H54v122Z"/><glyph unicode="®" horiz-adv-x="566" d="M283 230q-70 0-129 33t-94 90-35 129q0 73 35 130t94 90 129 33q71 0 129-33t94-90 35-130q0-72-35-129t-93-90-130-33Zm0 75q50 0 90 23t63 63 23 91q0 52-23 92t-63 63-90 23q-50 0-90-23t-63-63-23-92q0-51 23-91t63-63 90-23Zm-91 301h106q48 0 69-22t22-60q0-29-20-56t-63-28h-39v-77h-75v243Zm92-109q15 0 20 7t5 18q0 9-4 18t-21 10h-17v-53h17Zm63-40 40-94h-86l-31 92 77 2Z"/><glyph unicode="¯" horiz-adv-x="355" d="M50 556h255v-97H50v97Z"/><glyph unicode="°" horiz-adv-x="287" d="M22 572q0 32 16 58t43 41 60 16q32 0 58-15t41-42 16-58q0-32-15-59t-42-42-58-16q-33 0-60 15t-43 43-16 59Zm119-43q17 0 29 12t13 29q0 17-12 29t-30 13q-17 0-29-12t-12-30q0-17 12-29t29-12Z"/><glyph unicode="±" horiz-adv-x="535" d="M208 582h127V458h120V337H335V215H208v122H88v121h120v124ZM88 183h367V61H88v122Z"/><glyph unicode="²" horiz-adv-x="408" d="M45 623q20 30 66 49t94 19q71-1 115-39t44-104q0-46-24-85t-60-72-74-58-64-46l23 94h213V265H62v81q21 10 47 26t51 38 41 47 17 52q0 34-12 50t-40 16q-22 0-46-13t-35-31l-40 92Z"/><glyph unicode="³" horiz-adv-x="376" d="M163 260q-46 0-76 17t-47 34l39 81q8-9 25-25t43-17q21 0 37 12t16 45q0 36-18 49t-43 14q-14 0-24-2t-16-6l-7 12 75 126 29-20H57v100h258L212 476l-90 27q14 12 32 21t45 9q29 0 58-12t49-39 20-69q0-42-20-77t-56-55-87-21Z"/><glyph unicode="´" horiz-adv-x="317" d="M275 624 127 489H42l78 135h155Z"/><glyph unicode="µ" horiz-adv-x="584" d="M213-21q-59 0-97 38t-40 97l136-18v-297H72v638h140V162q2-29 15-46t44-18q31 0 53 21t35 57 13 83v178h140V0H385l-13 87 4-16q-15-27-38-48T284-9t-71-12Z"/><glyph unicode="¶" horiz-adv-x="592" d="M205 431q-46 0-84 22t-60 61-22 84q0 47 22 84t60 60 84 23h291V0H372v644h-42V0H205v431Z"/><glyph unicode="·" horiz-adv-x="175" d="M15 289q0 31 22 52t50 21q25 0 47-21t23-52q0-33-22-52t-48-20q-27 0-49 19t-23 53Z"/><glyph unicode="¸" horiz-adv-x="373" d="M93-136q10-12 25-19t35-8q17 0 35 9t19 27q0 11-10 22t-43 11q-16 0-31-3t-29-8L75-39l69 51h107l-77-86-26 35q11 2 21 3t21 2q56 2 94-21t39-70q0-38-22-62t-58-37-76-12q-44 0-72 13t-45 32l43 55Z"/><glyph unicode="¹" horiz-adv-x="283" d="M25 663h198V248H93v290H25v125Z"/><glyph unicode="º" horiz-adv-x="373" d="M25 581q0 45 20 79t58 55 85 20q49 0 85-20t55-54 20-80q0-44-19-79t-56-56-86-20q-47 0-84 18t-57 54-21 83Zm108-1q0-17 7-31t19-23 27-8q17 0 29 8t18 22 7 32q0 18-6 32t-19 22-29 9q-15 0-27-8t-19-23-7-32Z"/><glyph unicode="»" horiz-adv-x="609" d="m584 244-18 14q-18 14-48 38t-61 50-61 49-47 38-19 15V323l14-12q14-12 33-27t33-28 14-12l-14-12q-14-12-33-28t-33-29-14-12V39l254 205Zm-250 0-18 14q-18 14-48 38t-61 50-61 49-47 38-19 15V323l14-12q14-12 33-27t33-28 14-12l-14-12q-14-12-33-28t-33-29-14-12V39l254 205Z"/><glyph unicode="¼" horiz-adv-x="860" d="M693 698 286 0H156l407 698h130ZM25 663h198V248H93v290H25v125Zm815-491V94H493l-2 34 213 294h88V0H672v278l30 8-112-164-18 50h268Z"/><glyph unicode="½" horiz-adv-x="928" d="M25 663h198V248H93v290H25v125Zm520-315q20 30 66 49t94 19q71-1 115-39t44-104q0-46-24-85t-60-72-74-58-64-46l23 94h213V-10H562v81q21 10 47 26t51 38 41 47 17 52q0 34-12 50t-40 16q-22 0-46-13t-35-31l-40 92Zm127 350L265 0H135l407 698h130Z"/><glyph unicode="¾" horiz-adv-x="905" d="M173 260q-46 0-76 17t-47 34l39 81q8-9 25-25t43-17q21 0 37 12t16 45q0 36-18 49t-43 14q-14 0-24-2t-16-6l-7 12 75 126 29-20H67v100h258L222 476l-90 27q14 12 32 21t45 9q29 0 58-12t49-39 20-69q0-42-20-77t-56-55-87-21Zm555 438L321 0H191l407 698h130Zm127-525V95H508l-2 34 213 294h88V1H687v278l30 8-112-164-18 50h268Z"/><glyph unicode="¿" horiz-adv-x="452" d="M326 342v-53q0-49-12-83t-32-57-40-44q-27-25-48-49T173-9q0-21 11-36t26-24 31-9q29 0 48 13t32 35 22 44l115-54q-6-18-21-46t-42-56-69-47-100-19q-56 1-102 20t-73 60T24-22q0 55 15 89t37 58 44 46q18 18 33 38t24 47 9 65v21h140Zm-70 211q36 0 59-19t23-52q0-31-23-52t-59-21q-35 0-57 21t-23 52q0 32 22 51t58 20Z"/><glyph unicode="À" horiz-adv-x="696" d="m12 0 332 765h8L684 0H516L304 538l105 72L155 0H12Zm227 266h221l51-122H194l45 122Zm-77 677h155l62-135h-85L162 943Z"/><glyph unicode="Á" horiz-adv-x="696" d="m12 0 332 765h8L684 0H516L304 538l105 72L155 0H12Zm227 266h221l51-122H194l45 122Zm295 673L386 804h-85l78 135h155Z"/><glyph unicode="Â" horiz-adv-x="696" d="m12 0 332 765h8L684 0H516L304 538l105 72L155 0H12Zm227 266h221l51-122H194l45 122Zm162 550-78 74 34 10-79-84H152l185 184h1l189-184H401Z"/><glyph unicode="Ã" horiz-adv-x="696" d="m12 0 332 765h8L684 0H516L304 538l105 72L155 0H12Zm227 266h221l51-122H194l45 122Zm187 577q-34 0-57 14t-42 30q-11 9-21 16t-23 7q-13 0-20-10t-10-25 0-30h-70q-5 39 6 74t37 57 65 22q25 0 45-14t37-28q14-12 26-21t24-9q19 0 22 22t3 47h70q7-43-4-77t-34-55-54-20Z"/><glyph unicode="Ä" horiz-adv-x="696" d="m12 0 332 765h8L684 0H516L304 538l105 72L155 0H12Zm227 266h221l51-122H194l45 122Zm-69 608q0 32 22 52t50 21q25 0 47-20t23-53q0-32-22-52t-48-20q-27 0-49 20t-23 52Zm200 0q0 32 22 52t50 21q25 0 47-20t23-53q0-32-22-52t-48-20q-27 0-49 20t-23 52Z"/><glyph unicode="Å" horiz-adv-x="696" d="m12 0 332 765h8L684 0H516L304 538l105 72L155 0H12Zm227 266h221l51-122H194l45 122Zm1 634q0 48 31 76t81 28q47 0 79-28t32-76q0-47-32-76t-79-29q-48 0-80 29t-32 76Zm73-2q0-19 10-30t29-11q18 0 28 11t11 30q0 21-10 31t-29 11q-18 0-28-10t-11-32Z"/><glyph unicode="Æ" horiz-adv-x="967" d="M486 736h412V596H631V437h226V297H631V140h281V0H486v736Zm15-171q-2-11-6-26t-5-15L173 0H5l481 736 15-171ZM272 276h231V161H227l45 115Z"/><glyph unicode="Ç" horiz-adv-x="697" d="M647 61q-12-10-44-27T523 4 419-8q-87 2-155 31t-116 81-73 117-25 141q0 84 25 154t73 121 114 79 146 28q74 0 131-20t93-43l-57-137q-25 19-66 39t-96 21q-42 0-80-17t-68-50-47-74-17-93q0-53 15-97t45-75 69-49 92-17q59 0 101 19t64 40l60-130ZM317-136q10-12 25-19t35-8q17 0 35 9t19 27q0 11-10 22t-43 11q-16 0-31-3t-29-8l-19 66 69 51h107l-77-86-26 35q11 2 21 3t21 2q56 2 94-21t39-70q0-38-22-62t-58-37-76-12q-44 0-72 13t-45 32l43 55Z"/><glyph unicode="È" horiz-adv-x="666" d="M95 736h502V596H240V439h316V299H240V140h371V0H95v736Zm65 187h155l62-135h-85L160 923Z"/><glyph unicode="É" horiz-adv-x="666" d="M95 736h502V596H240V439h316V299H240V140h371V0H95v736Zm437 183L384 784h-85l78 135h155Z"/><glyph unicode="Ê" horiz-adv-x="666" d="M95 736h502V596H240V439h316V299H240V140h371V0H95v736Zm304 60-78 74 34 10-79-84H150l185 184h1l189-184H399Z"/><glyph unicode="Ë" horiz-adv-x="666" d="M95 736h502V596H240V439h316V299H240V140h371V0H95v736Zm73 118q0 32 22 52t50 21q25 0 47-20t23-53q0-32-22-52t-48-20q-27 0-49 20t-23 52Zm200 0q0 32 22 52t50 21q25 0 47-20t23-53q0-32-22-52t-48-20q-27 0-49 20t-23 52Z"/><glyph unicode="Ì" horiz-adv-x="335" d="M95 736h145V0H95v736ZM-18 923h155l62-135h-85L-18 923Z"/><glyph unicode="Í" horiz-adv-x="335" d="M95 736h145V0H95v736Zm259 183L206 784h-85l78 135h155Z"/><glyph unicode="Î" horiz-adv-x="335" d="M95 736h145V0H95v736Zm126 60-78 74 34 10-79-84H-28l185 184h1l189-184H221Z"/><glyph unicode="Ï" horiz-adv-x="335" d="M95 736h145V0H95v736ZM-10 854q0 32 22 52t50 21q25 0 47-20t23-53q0-32-22-52t-48-20q-27 0-49 20t-23 52Zm200 0q0 32 22 52t50 21q25 0 47-20t23-53q0-32-22-52t-48-20q-27 0-49 20t-23 52Z"/><glyph unicode="Ð" horiz-adv-x="771" d="M95 0v736h220q111 0 189-33t125-88 70-123 22-137q0-82-29-147T611 96 493 25 351 0H95Zm145 140h86q55 0 100 14t77 43 50 70 18 98q0 72-23 117t-58 71-71 34-61 10H240V140ZM20 685h315V555H20v130Z"/><glyph unicode="Ñ" horiz-adv-x="853" d="M754-30 196 474l43-24 3-450H95v765h6l546-502-32 14-3 459h146V-30h-4ZM485 803q-34 0-57 14t-42 30q-11 9-21 16t-23 7q-13 0-20-10t-10-25 0-30h-70q-5 39 6 74t37 57 65 22q25 0 45-14t37-28q14-12 26-21t24-9q19 0 22 22t3 47h70q7-43-4-77t-34-55-54-20Z"/><glyph unicode="Ò" horiz-adv-x="852" d="M50 367q0 76 29 144t80 120 120 83 146 30q77 0 145-30t120-82 82-121 30-144q0-78-29-146t-82-119-121-81T425-8q-78 0-146 29t-119 80-81 120-29 146Zm150 0q0-49 17-91t49-75 73-51 91-18q47 0 87 18t71 50 47 75 17 92q0 50-17 93t-48 75-72 51-89 18q-48 0-89-18t-72-50-48-76-17-93Zm40 546h155l62-135h-85L240 913Z"/><glyph unicode="Ó" horiz-adv-x="852" d="M50 367q0 76 29 144t80 120 120 83 146 30q77 0 145-30t120-82 82-121 30-144q0-78-29-146t-82-119-121-81T425-8q-78 0-146 29t-119 80-81 120-29 146Zm150 0q0-49 17-91t49-75 73-51 91-18q47 0 87 18t71 50 47 75 17 92q0 50-17 93t-48 75-72 51-89 18q-48 0-89-18t-72-50-48-76-17-93Zm412 542L464 774h-85l78 135h155Z"/><glyph unicode="Ô" horiz-adv-x="852" d="M50 367q0 76 29 144t80 120 120 83 146 30q77 0 145-30t120-82 82-121 30-144q0-78-29-146t-82-119-121-81T425-8q-78 0-146 29t-119 80-81 120-29 146Zm150 0q0-49 17-91t49-75 73-51 91-18q47 0 87 18t71 50 47 75 17 92q0 50-17 93t-48 75-72 51-89 18q-48 0-89-18t-72-50-48-76-17-93Zm279 419-78 74 34 10-79-84H230l185 184h1l189-184H479Z"/><glyph unicode="Õ" horiz-adv-x="852" d="M50 367q0 76 29 144t80 120 120 83 146 30q77 0 145-30t120-82 82-121 30-144q0-78-29-146t-82-119-121-81T425-8q-78 0-146 29t-119 80-81 120-29 146Zm150 0q0-49 17-91t49-75 73-51 91-18q47 0 87 18t71 50 47 75 17 92q0 50-17 93t-48 75-72 51-89 18q-48 0-89-18t-72-50-48-76-17-93Zm304 446q-34 0-57 14t-42 30q-11 9-21 16t-23 7q-13 0-20-10t-10-25 0-30h-70q-5 39 6 74t37 57 65 22q25 0 45-14t37-28q14-12 26-21t24-9q19 0 22 22t3 47h70q7-43-4-77t-34-55-54-20Z"/><glyph unicode="Ö" horiz-adv-x="852" d="M50 367q0 76 29 144t80 120 120 83 146 30q77 0 145-30t120-82 82-121 30-144q0-78-29-146t-82-119-121-81T425-8q-78 0-146 29t-119 80-81 120-29 146Zm150 0q0-49 17-91t49-75 73-51 91-18q47 0 87 18t71 50 47 75 17 92q0 50-17 93t-48 75-72 51-89 18q-48 0-89-18t-72-50-48-76-17-93Zm48 477q0 32 22 52t50 21q25 0 47-20t23-53q0-32-22-52t-48-20q-27 0-49 20t-23 52Zm200 0q0 32 22 52t50 21q25 0 47-20t23-53q0-32-22-52t-48-20q-27 0-49 20t-23 52Z"/><glyph unicode="×" horiz-adv-x="528" d="M287 296q20 21 39 40t40 40q26-26 52-54t52-54q-18-18-37-38t-38-40q20-19 39-39t40-42L363 0q-19 20-40 39t-41 40q-18-19-38-38T206 2q-28 27-55 53t-53 53l39 39 40 40-83 82 109 111 84-84Z"/><glyph unicode="Ø" horiz-adv-x="858" d="M771 675 168-23 76 60l605 699 90-84ZM50 367q0 76 29 144t80 120 120 83 146 30q77 0 145-30t120-82 82-121 30-144q0-78-29-146t-82-119-121-81T425-8q-78 0-146 29t-119 80-81 120-29 146Zm150 0q0-49 17-91t49-75 73-51 91-18q47 0 87 18t71 50 47 75 17 92q0 50-17 93t-48 75-72 51-89 18q-48 0-89-18t-72-50-48-76-17-93Z"/><glyph unicode="Ù" horiz-adv-x="756" d="M225 272q0-35 21-67t55-52 76-20q45 0 80 20t55 52 21 67v464h143V269q0-81-40-143T528 28 377-8q-82 0-149 35t-108 98-40 144v467h145V272Zm-33 651h155l62-135h-85L192 923Z"/><glyph unicode="Ú" horiz-adv-x="756" d="M225 272q0-35 21-67t55-52 76-20q45 0 80 20t55 52 21 67v464h143V269q0-81-40-143T528 28 377-8q-82 0-149 35t-108 98-40 144v467h145V272Zm339 647L416 784h-85l78 135h155Z"/><glyph unicode="Û" horiz-adv-x="756" d="M225 272q0-35 21-67t55-52 76-20q45 0 80 20t55 52 21 67v464h143V269q0-81-40-143T528 28 377-8q-82 0-149 35t-108 98-40 144v467h145V272Zm206 524-78 74 34 10-79-84H182l185 184h1l189-184H431Z"/><glyph unicode="Ü" horiz-adv-x="756" d="M225 272q0-35 21-67t55-52 76-20q45 0 80 20t55 52 21 67v464h143V269q0-81-40-143T528 28 377-8q-82 0-149 35t-108 98-40 144v467h145V272Zm-25 582q0 32 22 52t50 21q25 0 47-20t23-53q0-32-22-52t-48-20q-27 0-49 20t-23 52Zm200 0q0 32 22 52t50 21q25 0 47-20t23-53q0-32-22-52t-48-20q-27 0-49 20t-23 52Z"/><glyph unicode="Ý" horiz-adv-x="722" d="M286 229 15 736h179l190-382-43-3 187 385h179L431 229V0H286v229Zm281 690L419 784h-85l78 135h155Z"/><glyph unicode="Þ" horiz-adv-x="636" d="M348 616q68 0 116-17t79-50 44-78 14-103q0-45-12-90t-39-83-76-59-120-23H245V0H95v732h150V616h103Zm-10-362q29 0 50 9t35 24 21 35 7 42q0 25-9 50t-33 44-70 18h-94V254h93Z"/><glyph unicode="ß" horiz-adv-x="626" d="M105 468q0 63 31 108t83 70 110 24q68 0 115-19t72-51 25-73q0-39-15-74t-49-55q31-15 54-39t37-63 13-99q0-71-24-117t-68-68-103-22q-48 0-78 13t-40 26l54 84q14-12 25-15t25-4q27 0 41 14t21 40 6 57q0 41-10 68t-29 41-49 12h-6l-1 121q26 0 40 13t15 36q0 20-8 33t-24 20-38 7q-50 0-67-35t-18-102V0H105v327H40v114h65v27Z"/><glyph unicode="à" horiz-adv-x="614" d="M256-12q-61 0-110 24T67 88 38 218q0 74 30 128t79 83 104 30q65 0 98-21t56-48l-6-17 13 64h130V0H402v95l11-30q-2 0-12-11t-29-27-48-27-68-12Zm40 114q25 0 45 7t35 22 26 37v107q-8 22-24 37t-38 24-49 9q-30 0-55-15t-41-43-15-62q0-35 16-63t42-44 58-16ZM151 644h155l62-135h-85L151 644Z"/><glyph unicode="á" horiz-adv-x="614" d="M256-12q-61 0-110 24T67 88 38 218q0 74 30 128t79 83 104 30q65 0 98-21t56-48l-6-17 13 64h130V0H402v95l11-30q-2 0-12-11t-29-27-48-27-68-12Zm40 114q25 0 45 7t35 22 26 37v107q-8 22-24 37t-38 24-49 9q-30 0-55-15t-41-43-15-62q0-35 16-63t42-44 58-16Zm178 542L326 509h-85l78 135h155Z"/><glyph unicode="â" horiz-adv-x="614" d="M256-12q-61 0-110 24T67 88 38 218q0 74 30 128t79 83 104 30q65 0 98-21t56-48l-6-17 13 64h130V0H402v95l11-30q-2 0-12-11t-29-27-48-27-68-12Zm40 114q25 0 45 7t35 22 26 37v107q-8 22-24 37t-38 24-49 9q-30 0-55-15t-41-43-15-62q0-35 16-63t42-44 58-16Zm91 407-78 74 34 10-79-84H138l185 184h1l189-184H387Z"/><glyph unicode="ã" horiz-adv-x="614" d="M256-12q-61 0-110 24T67 88 38 218q0 74 30 128t79 83 104 30q65 0 98-21t56-48l-6-17 13 64h130V0H402v95l11-30q-2 0-12-11t-29-27-48-27-68-12Zm40 114q25 0 45 7t35 22 26 37v107q-8 22-24 37t-38 24-49 9q-30 0-55-15t-41-43-15-62q0-35 16-63t42-44 58-16Zm110 384q-34 0-57 14t-42 30q-11 9-21 16t-23 7q-13 0-20-10t-10-25 0-30h-70q-5 39 6 74t37 57 65 22q25 0 45-14t37-28q14-12 26-21t24-9q19 0 22 22t3 47h70q7-43-4-77t-34-55-54-20Z"/><glyph unicode="ä" horiz-adv-x="614" d="M256-12q-61 0-110 24T67 88 38 218q0 74 30 128t79 83 104 30q65 0 98-21t56-48l-6-17 13 64h130V0H402v95l11-30q-2 0-12-11t-29-27-48-27-68-12Zm40 114q25 0 45 7t35 22 26 37v107q-8 22-24 37t-38 24-49 9q-30 0-55-15t-41-43-15-62q0-35 16-63t42-44 58-16ZM154 562q0 32 22 52t50 21q25 0 47-20t23-53q0-32-22-52t-48-20q-27 0-49 20t-23 52Zm200 0q0 32 22 52t50 21q25 0 47-20t23-53q0-32-22-52t-48-20q-27 0-49 20t-23 52Z"/><glyph unicode="å" horiz-adv-x="614" d="M256-12q-61 0-110 24T67 88 38 218q0 74 30 128t79 83 104 30q65 0 98-21t56-48l-6-17 13 64h130V0H402v95l11-30q-2 0-12-11t-29-27-48-27-68-12Zm40 114q25 0 45 7t35 22 26 37v107q-8 22-24 37t-38 24-49 9q-30 0-55-15t-41-43-15-62q0-35 16-63t42-44 58-16Zm-95 484q0 48 31 76t81 28q47 0 79-28t32-76q0-47-32-76t-79-29q-48 0-80 29t-32 76Zm73-2q0-19 10-30t29-11q18 0 28 11t11 30q0 21-10 31t-29 11q-18 0-28-10t-11-32Z"/><glyph unicode="æ" horiz-adv-x="849" d="M210-11q-59 0-97 17T57 55t-19 73q0 42 27 72t71 47 93 17q44 0 86-10t65-24l-22-80q-28 14-46 19t-50 5q-21 0-37-4t-24-14-9-25q0-22 16-34t42-12q19 0 37 7t35 19 25 24v38h52V73q-20-27-48-45T288-1t-78-10Zm124 238v36q0 33-17 50t-37 24-32 7q-40 0-69-21t-43-43l-70 88q33 35 82 62t120 28q54 0 99-17t74-52 28-88v-20l-135-54ZM583-12q-80 0-135 30t-85 83-29 122q0 66 34 119t91 84 127 32q94 0 154-54t79-158L479 138l-31 76 246 83-29-13q-8 26-28 45t-62 20q-31 0-54-14t-36-41-13-63q0-41 15-68t41-42 58-14q23 0 44 8t43 21l62-104q-35-20-75-32t-77-12Z"/><glyph unicode="ç" horiz-adv-x="479" d="M443 39q-29-23-72-37t-86-14q-75 0-130 27T69 94 38 219q0 73 33 124t86 79 113 27q59 0 102-16t75-42l-68-90q-14 11-38 22t-58 12q-29 0-53-15t-38-41-14-60q0-32 15-59t41-42 63-16q23 0 42 6t34 19l70-88ZM157-136q10-12 25-19t35-8q17 0 35 9t19 27q0 11-10 22t-43 11q-16 0-31-3t-29-8l-19 66 69 51h107l-77-86-26 35q11 2 21 3t21 2q56 2 94-21t39-70q0-38-22-62t-58-37-76-12q-44 0-72 13t-45 32l43 55Z"/><glyph unicode="è" horiz-adv-x="553" d="M287-12q-80 0-135 30t-85 83-29 122q0 66 34 119t91 84 127 32q94 0 154-54t79-158L183 138l-31 76 246 83-29-13q-8 26-28 45t-62 20q-31 0-54-14t-36-41-13-63q0-41 15-68t41-42 58-14q23 0 44 8t43 21l62-104q-35-20-75-32t-77-12ZM114 645h155l62-135h-85L114 645Z"/><glyph unicode="é" horiz-adv-x="553" d="M287-12q-80 0-135 30t-85 83-29 122q0 66 34 119t91 84 127 32q94 0 154-54t79-158L183 138l-31 76 246 83-29-13q-8 26-28 45t-62 20q-31 0-54-14t-36-41-13-63q0-41 15-68t41-42 58-14q23 0 44 8t43 21l62-104q-35-20-75-32t-77-12Zm150 657L289 510h-85l78 135h155Z"/><glyph unicode="ê" horiz-adv-x="553" d="M287-12q-80 0-135 30t-85 83-29 122q0 66 34 119t91 84 127 32q94 0 154-54t79-158L183 138l-31 76 246 83-29-13q-8 26-28 45t-62 20q-31 0-54-14t-36-41-13-63q0-41 15-68t41-42 58-14q23 0 44 8t43 21l62-104q-35-20-75-32t-77-12Zm63 522-78 74 34 10-79-84H101l185 184h1l189-184H350Z"/><glyph unicode="ë" horiz-adv-x="553" d="M287-12q-80 0-135 30t-85 83-29 122q0 66 34 119t91 84 127 32q94 0 154-54t79-158L183 138l-31 76 246 83-29-13q-8 26-28 45t-62 20q-31 0-54-14t-36-41-13-63q0-41 15-68t41-42 58-14q23 0 44 8t43 21l62-104q-35-20-75-32t-77-12ZM117 563q0 32 22 52t50 21q25 0 47-20t23-53q0-32-22-52t-48-20q-27 0-49 20t-23 52Zm200 0q0 32 22 52t50 21q25 0 47-20t23-53q0-32-22-52t-48-20q-27 0-49 20t-23 52Z"/><glyph unicode="ì" horiz-adv-x="284" d="M72 437h140V0H72v437Zm152 187h155l62-135h-85L224 624Z"/><glyph unicode="í" horiz-adv-x="284" d="M72 437h140V0H72v437Zm219 187L143 489H58l78 135h155Z"/><glyph unicode="î" horiz-adv-x="284" d="M72 437h140V0H72v437Zm388 52-78 74 34 10-79-84H211l185 184h1l189-184H460Z"/><glyph unicode="ï" horiz-adv-x="284" d="M72 437h140V0H72v437Zm155 105q0 32 22 52t50 21q25 0 47-20t23-53q0-32-22-52t-48-20q-27 0-49 20t-23 52Zm200 0q0 32 22 52t50 21q25 0 47-20t23-53q0-32-22-52t-48-20q-27 0-49 20t-23 52Z"/><glyph unicode="ð" horiz-adv-x="571" d="M273-12q-65 0-118 28T70 97 38 224q0 67 28 120t77 83 109 31q47 0 83-21t60-57 37-76 13-80l-53 30q0 84-14 146t-44 111-74 93-105 93l104 92q60-39 110-96t87-126 57-145 20-152q0-51-16-101t-48-91-81-65-115-25Zm12 114q33 0 57 16t37 43 13 62q0 35-13 62t-37 43-57 16q-30 0-54-16t-38-43-14-62q0-34 14-61t38-44 54-16Zm207 565L214 497l-45 93 278 170 45-93Z"/><glyph unicode="ñ" horiz-adv-x="594" d="m199 437 11-78-2 7q23 41 65 66t103 26q62 0 103-36t43-95V0H382v275q-1 29-15 46t-49 18q-32 0-56-21t-37-57-13-83V0H72v437h127Zm177 39q-34 0-57 14t-42 30q-11 9-21 16t-23 7q-13 0-20-10t-10-25 0-30h-70q-5 39 6 74t37 57 65 22q25 0 45-14t37-28q14-12 26-21t24-9q19 0 22 22t3 47h70q7-43-4-77t-34-55-54-20Z"/><glyph unicode="ò" horiz-adv-x="571" d="M38 224q0 67 31 120t89 83 131 31q75 0 130-30t84-84 30-120q0-67-29-120t-85-85-132-31q-72 0-128 28T70 97 38 224Zm141-1q0-34 14-61t38-44 54-16q33 0 57 16t37 43 13 62q0 35-13 62t-37 43-57 16q-30 0-54-16t-38-43-14-62Zm-69 421h155l62-135h-85L110 644Z"/><glyph unicode="ó" horiz-adv-x="571" d="M38 224q0 67 31 120t89 83 131 31q75 0 130-30t84-84 30-120q0-67-29-120t-85-85-132-31q-72 0-128 28T70 97 38 224Zm141-1q0-34 14-61t38-44 54-16q33 0 57 16t37 43 13 62q0 35-13 62t-37 43-57 16q-30 0-54-16t-38-43-14-62Zm254 421L285 509h-85l78 135h155Z"/><glyph unicode="ô" horiz-adv-x="571" d="M38 224q0 67 31 120t89 83 131 31q75 0 130-30t84-84 30-120q0-67-29-120t-85-85-132-31q-72 0-128 28T70 97 38 224Zm141-1q0-34 14-61t38-44 54-16q33 0 57 16t37 43 13 62q0 35-13 62t-37 43-57 16q-30 0-54-16t-38-43-14-62Zm167 286-78 74 34 10-79-84H97l185 184h1l189-184H346Z"/><glyph unicode="õ" horiz-adv-x="571" d="M38 224q0 67 31 120t89 83 131 31q75 0 130-30t84-84 30-120q0-67-29-120t-85-85-132-31q-72 0-128 28T70 97 38 224Zm141-1q0-34 14-61t38-44 54-16q33 0 57 16t37 43 13 62q0 35-13 62t-37 43-57 16q-30 0-54-16t-38-43-14-62Zm186 263q-34 0-57 14t-42 30q-11 9-21 16t-23 7q-13 0-20-10t-10-25 0-30h-70q-5 39 6 74t37 57 65 22q25 0 45-14t37-28q14-12 26-21t24-9q19 0 22 22t3 47h70q7-43-4-77t-34-55-54-20Z"/><glyph unicode="ö" horiz-adv-x="571" d="M38 224q0 67 31 120t89 83 131 31q75 0 130-30t84-84 30-120q0-67-29-120t-85-85-132-31q-72 0-128 28T70 97 38 224Zm141-1q0-34 14-61t38-44 54-16q33 0 57 16t37 43 13 62q0 35-13 62t-37 43-57 16q-30 0-54-16t-38-43-14-62Zm-66 339q0 32 22 52t50 21q25 0 47-20t23-53q0-32-22-52t-48-20q-27 0-49 20t-23 52Zm200 0q0 32 22 52t50 21q25 0 47-20t23-53q0-32-22-52t-48-20q-27 0-49 20t-23 52Z"/><glyph unicode="÷" horiz-adv-x="510" d="M184 429q0 31 22 52t50 21q25 0 47-21t23-52q0-33-22-52t-48-20q-27 0-49 19t-23 53Zm0-315q0 31 22 52t50 21q25 0 47-21t23-52q0-33-22-52t-48-20q-27 0-49 19t-23 53ZM69 329h367V208H69v121Z"/><glyph unicode="ø" horiz-adv-x="546" d="M518 426 109-37 42 24l406 460 70-58ZM38 224q0 67 31 120t89 83 131 31q75 0 130-30t84-84 30-120q0-67-29-120t-85-85-132-31q-72 0-128 28T70 97 38 224Zm141-1q0-34 14-61t38-44 54-16q33 0 57 16t37 43 13 62q0 35-13 62t-37 43-57 16q-30 0-54-16t-38-43-14-62Z"/><glyph unicode="ù" horiz-adv-x="584" d="M213-21q-59 0-99 36t-42 95v327h140V162q2-29 15-46t44-18q31 0 53 21t35 57 13 83v178h140V0H385l-11 80 2-9q-15-27-38-48T284-9t-71-12Zm-95 665h155l62-135h-85L118 644Z"/><glyph unicode="ú" horiz-adv-x="584" d="M213-21q-59 0-99 36t-42 95v327h140V162q2-29 15-46t44-18q31 0 53 21t35 57 13 83v178h140V0H385l-11 80 2-9q-15-27-38-48T284-9t-71-12Zm228 665L293 509h-85l78 135h155Z"/><glyph unicode="û" horiz-adv-x="584" d="M213-21q-59 0-99 36t-42 95v327h140V162q2-29 15-46t44-18q31 0 53 21t35 57 13 83v178h140V0H385l-11 80 2-9q-15-27-38-48T284-9t-71-12Zm141 530-78 74 34 10-79-84H105l185 184h1l189-184H354Z"/><glyph unicode="ü" horiz-adv-x="584" d="M213-21q-59 0-99 36t-42 95v327h140V162q2-29 15-46t44-18q31 0 53 21t35 57 13 83v178h140V0H385l-11 80 2-9q-15-27-38-48T284-9t-71-12Zm-92 583q0 32 22 52t50 21q25 0 47-20t23-53q0-32-22-52t-48-20q-27 0-49 20t-23 52Zm200 0q0 32 22 52t50 21q25 0 47-20t23-53q0-32-22-52t-48-20q-27 0-49 20t-23 52Z"/><glyph unicode="ý" horiz-adv-x="534" d="m107-210 291 647h126L242-210H107ZM224-2 10 437h157L332 68 224-2Zm200 626L276 489h-85l78 135h155Z"/><glyph unicode="þ" horiz-adv-x="625" d="M349-12q-26 0-50 6t-46 17-39 30v44-295H75v999h140V362l-11 30q23 19 49 34t57 24 67 9q61 0 109-28t75-82 28-129q0-74-31-126t-85-79-124-27ZM321 98q34 0 62 15t46 43 18 62q0 35-16 63t-42 44-58 16q-28 0-49-7t-38-22-29-37V168q8-21 23-37t36-24 47-9Z"/><glyph unicode="ÿ" horiz-adv-x="534" d="m107-210 291 647h126L242-210H107ZM224-2 10 437h157L332 68 224-2ZM104 542q0 32 22 52t50 21q25 0 47-20t23-53q0-32-22-52t-48-20q-27 0-49 20t-23 52Zm200 0q0 32 22 52t50 21q25 0 47-20t23-53q0-32-22-52t-48-20q-27 0-49 20t-23 52Z"/><glyph unicode="–" horiz-adv-x="519" d="M102 286h307V165H102v121Z"/><glyph unicode="—" horiz-adv-x="714" d="M101 286h512V165H101v121Z"/><glyph unicode="‘" horiz-adv-x="192" d="m100 745 72-28q-22-20-36-58t-7-73l-107-7q-7 38 2 70t31 56 45 40Z"/><glyph unicode="’" horiz-adv-x="197" d="m92 559-72 28q22 20 36 58t7 73l107 7q6-28-4-62t-30-62-44-42Z"/><glyph unicode="‚" horiz-adv-x="197" d="M92-73 20-45q22 20 36 58t7 73l107 7q6-28-4-62t-30-62-44-42Z"/><glyph unicode="“" horiz-adv-x="331" d="m239 745 72-28q-22-20-36-58t-7-73l-107-7q-7 38 2 70t31 56 45 40Zm-139 0 72-28q-22-20-36-58t-7-73l-107-7q-7 38 2 70t31 56 45 40Z"/><glyph unicode="”" horiz-adv-x="334" d="m92 559-72 28q22 20 36 58t7 73l107 7q6-28-4-62t-30-62-44-42Zm142 0-72 28q22 20 36 58t7 73l107 7q6-28-4-62t-30-62-44-42Z"/><glyph unicode="„" horiz-adv-x="334" d="M92-62 20-34q22 20 36 58t7 73l107 7q6-28-4-62t-30-62-44-42Zm142 0-72 28q22 20 36 58t7 73l107 7q6-28-4-62t-30-62-44-42Z"/><glyph unicode="•" horiz-adv-x="488" d="M80 306q0 46 22 84t59 60 83 23q46 0 83-22t60-61 23-84q0-46-22-83t-60-59-84-22q-45 0-82 21t-60 59-22 84Z"/><glyph unicode="‹" horiz-adv-x="359" d="m15 244 18 14q18 14 48 38t61 50 61 49 47 38 19 15V323l-14-12q-14-12-33-27t-33-28-14-12l14-12q14-12 33-28t33-29 14-12V39L15 244Z"/><glyph unicode="›" horiz-adv-x="349" d="m334 244-18 14q-18 14-48 38t-61 50-61 49-47 38-19 15V323l14-12q14-12 33-27t33-28 14-12l-14-12q-14-12-33-28t-33-29-14-12V39l254 205Z"/></font>
</defs>
</svg>
